<?xml version="1.0" encoding="UTF-8" standalone="no"?>
<!-- Created with Inkscape (http://www.inkscape.org/) -->
<svg
   xmlns:dc="http://purl.org/dc/elements/1.1/"
   xmlns:cc="http://web.resource.org/cc/"
   xmlns:rdf="http://www.w3.org/1999/02/22-rdf-syntax-ns#"
   xmlns:svg="http://www.w3.org/2000/svg"
   xmlns="http://www.w3.org/2000/svg"
   xmlns:sodipodi="http://sodipodi.sourceforge.net/DTD/sodipodi-0.dtd"
   xmlns:inkscape="http://www.inkscape.org/namespaces/inkscape"
   width="744.09448819"
   height="1052.3622047"
   id="svg2"
   sodipodi:version="0.32"
   inkscape:version="0.44.1"
   sodipodi:docbase="/home/lok/pygameLesson/wormstory/data"
   sodipodi:docname="block.svg"
   inkscape:export-filename="/home/lok/pygameLesson/wormstory/data/block.png"
   inkscape:export-xdpi="27"
   inkscape:export-ydpi="27">
  <defs
     id="defs4" />
  <sodipodi:namedview
     id="base"
     pagecolor="#ffffff"
     bordercolor="#666666"
     borderopacity="1.0"
     gridtolerance="10000"
     guidetolerance="10"
     objecttolerance="10"
     inkscape:pageopacity="0.0"
     inkscape:pageshadow="2"
     inkscape:zoom="0.244"
     inkscape:cx="562.48514"
     inkscape:cy="576.82361"
     inkscape:document-units="px"
     inkscape:current-layer="layer1"
     inkscape:window-width="1024"
     inkscape:window-height="693"
     inkscape:window-x="0"
     inkscape:window-y="25" />
  <metadata
     id="metadata7">
    <rdf:RDF>
      <cc:Work
         rdf:about="">
        <dc:format>image/svg+xml</dc:format>
        <dc:type
           rdf:resource="http://purl.org/dc/dcmitype/StillImage" />
      </cc:Work>
    </rdf:RDF>
  </metadata>
  <g
     inkscape:label="Layer 1"
     inkscape:groupmode="layer"
     id="layer1">
    <rect
       style="fill:lime;fill-opacity:1;stroke:none;stroke-width:17.71653557;stroke-miterlimit:4;stroke-dasharray:none;stroke-opacity:1"
       id="rect1987"
       width="2000"
       height="2000"
       x="-437.51486"
       y="-524.46143" />
    <g
       id="g1895">
      <g
         id="g1885">
        <path
           style="fill:aqua;fill-opacity:1;stroke:none;stroke-width:17.71653557;stroke-miterlimit:4;stroke-dasharray:none;stroke-opacity:1"
           d="M 137.14509,155.21875 L 137.14509,349.5 L 451.42634,349.5 L 451.42634,155.21875 L 137.14509,155.21875 z M 194.11384,190.4375 L 394.45759,190.4375 L 394.45759,314.28125 L 194.11384,314.28125 L 194.11384,190.4375 z M 209.14509,199.71875 L 209.14509,305 L 379.45759,305 L 379.45759,199.71875 L 209.14509,199.71875 z "
           id="rect1872" />
        <path
           style="fill:aqua;fill-opacity:1;stroke:none;stroke-width:17.71653557;stroke-miterlimit:4;stroke-dasharray:none;stroke-opacity:1"
           d="M 451.42634,366.65014 L 257.14509,366.65014 L 257.14509,680.93138 L 451.42634,680.93138 L 451.42634,366.65014 z M 416.20759,423.61888 L 416.20759,623.96263 L 292.36384,623.96263 L 292.36384,423.61888 L 416.20759,423.61888 z M 406.92634,438.65013 L 301.64509,438.65013 L 301.64509,608.96263 L 406.92634,608.96263 L 406.92634,438.65013 z "
           id="path1883" />
      </g>
      <g
         transform="matrix(-1,0,0,-1,922.8571,719.0086)"
         id="g1889">
        <path
           style="fill:aqua;fill-opacity:1;stroke:none;stroke-width:17.71653557;stroke-miterlimit:4;stroke-dasharray:none;stroke-opacity:1"
           d="M 137.14509,155.21875 L 137.14509,349.5 L 451.42634,349.5 L 451.42634,155.21875 L 137.14509,155.21875 z M 194.11384,190.4375 L 394.45759,190.4375 L 394.45759,314.28125 L 194.11384,314.28125 L 194.11384,190.4375 z M 209.14509,199.71875 L 209.14509,305 L 379.45759,305 L 379.45759,199.71875 L 209.14509,199.71875 z "
           id="path1891" />
        <path
           style="fill:aqua;fill-opacity:1;stroke:none;stroke-width:17.71653557;stroke-miterlimit:4;stroke-dasharray:none;stroke-opacity:1"
           d="M 451.42634,366.65014 L 257.14509,366.65014 L 257.14509,680.93138 L 451.42634,680.93138 L 451.42634,366.65014 z M 416.20759,423.61888 L 416.20759,623.96263 L 292.36384,623.96263 L 292.36384,423.61888 L 416.20759,423.61888 z M 406.92634,438.65013 L 301.64509,438.65013 L 301.64509,608.96263 L 406.92634,608.96263 L 406.92634,438.65013 z "
           id="path1893" />
      </g>
    </g>
    <g
       id="g1903"
       transform="translate(-549.9999,4.286443)">
      <g
         id="g1905">
        <path
           style="fill:aqua;fill-opacity:1;stroke:none;stroke-width:17.71653557;stroke-miterlimit:4;stroke-dasharray:none;stroke-opacity:1"
           d="M 137.14509,155.21875 L 137.14509,349.5 L 451.42634,349.5 L 451.42634,155.21875 L 137.14509,155.21875 z M 194.11384,190.4375 L 394.45759,190.4375 L 394.45759,314.28125 L 194.11384,314.28125 L 194.11384,190.4375 z M 209.14509,199.71875 L 209.14509,305 L 379.45759,305 L 379.45759,199.71875 L 209.14509,199.71875 z "
           id="path1907" />
        <path
           style="fill:aqua;fill-opacity:1;stroke:none;stroke-width:17.71653557;stroke-miterlimit:4;stroke-dasharray:none;stroke-opacity:1"
           d="M 451.42634,366.65014 L 257.14509,366.65014 L 257.14509,680.93138 L 451.42634,680.93138 L 451.42634,366.65014 z M 416.20759,423.61888 L 416.20759,623.96263 L 292.36384,623.96263 L 292.36384,423.61888 L 416.20759,423.61888 z M 406.92634,438.65013 L 301.64509,438.65013 L 301.64509,608.96263 L 406.92634,608.96263 L 406.92634,438.65013 z "
           id="path1909" />
      </g>
      <g
         transform="matrix(-1,0,0,-1,922.8571,719.0086)"
         id="g1911">
        <path
           style="fill:aqua;fill-opacity:1;stroke:none;stroke-width:17.71653557;stroke-miterlimit:4;stroke-dasharray:none;stroke-opacity:1"
           d="M 137.14509,155.21875 L 137.14509,349.5 L 451.42634,349.5 L 451.42634,155.21875 L 137.14509,155.21875 z M 194.11384,190.4375 L 394.45759,190.4375 L 394.45759,314.28125 L 194.11384,314.28125 L 194.11384,190.4375 z M 209.14509,199.71875 L 209.14509,305 L 379.45759,305 L 379.45759,199.71875 L 209.14509,199.71875 z "
           id="path1913" />
        <path
           style="fill:aqua;fill-opacity:1;stroke:none;stroke-width:17.71653557;stroke-miterlimit:4;stroke-dasharray:none;stroke-opacity:1"
           d="M 451.42634,366.65014 L 257.14509,366.65014 L 257.14509,680.93138 L 451.42634,680.93138 L 451.42634,366.65014 z M 416.20759,423.61888 L 416.20759,623.96263 L 292.36384,623.96263 L 292.36384,423.61888 L 416.20759,423.61888 z M 406.92634,438.65013 L 301.64509,438.65013 L 301.64509,608.96263 L 406.92634,608.96263 L 406.92634,438.65013 z "
           id="path1915" />
      </g>
    </g>
    <g
       id="g1917"
       transform="translate(333.5746,426.1248)">
      <g
         id="g1919">
        <path
           style="fill:aqua;fill-opacity:1;stroke:none;stroke-width:17.71653557;stroke-miterlimit:4;stroke-dasharray:none;stroke-opacity:1"
           d="M 137.14509,155.21875 L 137.14509,349.5 L 451.42634,349.5 L 451.42634,155.21875 L 137.14509,155.21875 z M 194.11384,190.4375 L 394.45759,190.4375 L 394.45759,314.28125 L 194.11384,314.28125 L 194.11384,190.4375 z M 209.14509,199.71875 L 209.14509,305 L 379.45759,305 L 379.45759,199.71875 L 209.14509,199.71875 z "
           id="path1921" />
        <path
           style="fill:aqua;fill-opacity:1;stroke:none;stroke-width:17.71653557;stroke-miterlimit:4;stroke-dasharray:none;stroke-opacity:1"
           d="M 451.42634,366.65014 L 257.14509,366.65014 L 257.14509,680.93138 L 451.42634,680.93138 L 451.42634,366.65014 z M 416.20759,423.61888 L 416.20759,623.96263 L 292.36384,623.96263 L 292.36384,423.61888 L 416.20759,423.61888 z M 406.92634,438.65013 L 301.64509,438.65013 L 301.64509,608.96263 L 406.92634,608.96263 L 406.92634,438.65013 z "
           id="path1923" />
      </g>
      <g
         transform="matrix(-1,0,0,-1,922.8571,719.0086)"
         id="g1925">
        <path
           style="fill:aqua;fill-opacity:1;stroke:none;stroke-width:17.71653557;stroke-miterlimit:4;stroke-dasharray:none;stroke-opacity:1"
           d="M 137.14509,155.21875 L 137.14509,349.5 L 451.42634,349.5 L 451.42634,155.21875 L 137.14509,155.21875 z M 194.11384,190.4375 L 394.45759,190.4375 L 394.45759,314.28125 L 194.11384,314.28125 L 194.11384,190.4375 z M 209.14509,199.71875 L 209.14509,305 L 379.45759,305 L 379.45759,199.71875 L 209.14509,199.71875 z "
           id="path1927" />
        <path
           style="fill:aqua;fill-opacity:1;stroke:none;stroke-width:17.71653557;stroke-miterlimit:4;stroke-dasharray:none;stroke-opacity:1"
           d="M 451.42634,366.65014 L 257.14509,366.65014 L 257.14509,680.93138 L 451.42634,680.93138 L 451.42634,366.65014 z M 416.20759,423.61888 L 416.20759,623.96263 L 292.36384,623.96263 L 292.36384,423.61888 L 416.20759,423.61888 z M 406.92634,438.65013 L 301.64509,438.65013 L 301.64509,608.96263 L 406.92634,608.96263 L 406.92634,438.65013 z "
           id="path1929" />
      </g>
    </g>
    <g
       id="g1931"
       transform="translate(-106.8096,760.9111)">
      <g
         id="g1933">
        <path
           style="fill:aqua;fill-opacity:1;stroke:none;stroke-width:17.71653557;stroke-miterlimit:4;stroke-dasharray:none;stroke-opacity:1"
           d="M 137.14509,155.21875 L 137.14509,349.5 L 451.42634,349.5 L 451.42634,155.21875 L 137.14509,155.21875 z M 194.11384,190.4375 L 394.45759,190.4375 L 394.45759,314.28125 L 194.11384,314.28125 L 194.11384,190.4375 z M 209.14509,199.71875 L 209.14509,305 L 379.45759,305 L 379.45759,199.71875 L 209.14509,199.71875 z "
           id="path1935" />
        <path
           style="fill:aqua;fill-opacity:1;stroke:none;stroke-width:17.71653557;stroke-miterlimit:4;stroke-dasharray:none;stroke-opacity:1"
           d="M 451.42634,366.65014 L 257.14509,366.65014 L 257.14509,680.93138 L 451.42634,680.93138 L 451.42634,366.65014 z M 416.20759,423.61888 L 416.20759,623.96263 L 292.36384,623.96263 L 292.36384,423.61888 L 416.20759,423.61888 z M 406.92634,438.65013 L 301.64509,438.65013 L 301.64509,608.96263 L 406.92634,608.96263 L 406.92634,438.65013 z "
           id="path1937" />
      </g>
      <g
         transform="matrix(-1,0,0,-1,922.8571,719.0086)"
         id="g1939">
        <path
           style="fill:aqua;fill-opacity:1;stroke:none;stroke-width:17.71653557;stroke-miterlimit:4;stroke-dasharray:none;stroke-opacity:1"
           d="M 137.14509,155.21875 L 137.14509,349.5 L 451.42634,349.5 L 451.42634,155.21875 L 137.14509,155.21875 z M 194.11384,190.4375 L 394.45759,190.4375 L 394.45759,314.28125 L 194.11384,314.28125 L 194.11384,190.4375 z M 209.14509,199.71875 L 209.14509,305 L 379.45759,305 L 379.45759,199.71875 L 209.14509,199.71875 z "
           id="path1941" />
        <path
           style="fill:aqua;fill-opacity:1;stroke:none;stroke-width:17.71653557;stroke-miterlimit:4;stroke-dasharray:none;stroke-opacity:1"
           d="M 451.42634,366.65014 L 257.14509,366.65014 L 257.14509,680.93138 L 451.42634,680.93138 L 451.42634,366.65014 z M 416.20759,423.61888 L 416.20759,623.96263 L 292.36384,623.96263 L 292.36384,423.61888 L 416.20759,423.61888 z M 406.92634,438.65013 L 301.64509,438.65013 L 301.64509,608.96263 L 406.92634,608.96263 L 406.92634,438.65013 z "
           id="path1943" />
      </g>
    </g>
    <g
       id="g1945"
       transform="translate(754.5116,101.9111)">
      <g
         id="g1947">
        <path
           style="fill:aqua;fill-opacity:1;stroke:none;stroke-width:17.71653557;stroke-miterlimit:4;stroke-dasharray:none;stroke-opacity:1"
           d="M 137.14509,155.21875 L 137.14509,349.5 L 451.42634,349.5 L 451.42634,155.21875 L 137.14509,155.21875 z M 194.11384,190.4375 L 394.45759,190.4375 L 394.45759,314.28125 L 194.11384,314.28125 L 194.11384,190.4375 z M 209.14509,199.71875 L 209.14509,305 L 379.45759,305 L 379.45759,199.71875 L 209.14509,199.71875 z "
           id="path1949" />
        <path
           style="fill:aqua;fill-opacity:1;stroke:none;stroke-width:17.71653557;stroke-miterlimit:4;stroke-dasharray:none;stroke-opacity:1"
           d="M 451.42634,366.65014 L 257.14509,366.65014 L 257.14509,680.93138 L 451.42634,680.93138 L 451.42634,366.65014 z M 416.20759,423.61888 L 416.20759,623.96263 L 292.36384,623.96263 L 292.36384,423.61888 L 416.20759,423.61888 z M 406.92634,438.65013 L 301.64509,438.65013 L 301.64509,608.96263 L 406.92634,608.96263 L 406.92634,438.65013 z "
           id="path1951" />
      </g>
      <g
         transform="matrix(-1,0,0,-1,922.8571,719.0086)"
         id="g1953">
        <path
           style="fill:aqua;fill-opacity:1;stroke:none;stroke-width:17.71653557;stroke-miterlimit:4;stroke-dasharray:none;stroke-opacity:1"
           d="M 137.14509,155.21875 L 137.14509,349.5 L 451.42634,349.5 L 451.42634,155.21875 L 137.14509,155.21875 z M 194.11384,190.4375 L 394.45759,190.4375 L 394.45759,314.28125 L 194.11384,314.28125 L 194.11384,190.4375 z M 209.14509,199.71875 L 209.14509,305 L 379.45759,305 L 379.45759,199.71875 L 209.14509,199.71875 z "
           id="path1955" />
        <path
           style="fill:aqua;fill-opacity:1;stroke:none;stroke-width:17.71653557;stroke-miterlimit:4;stroke-dasharray:none;stroke-opacity:1"
           d="M 451.42634,366.65014 L 257.14509,366.65014 L 257.14509,680.93138 L 451.42634,680.93138 L 451.42634,366.65014 z M 416.20759,423.61888 L 416.20759,623.96263 L 292.36384,623.96263 L 292.36384,423.61888 L 416.20759,423.61888 z M 406.92634,438.65013 L 301.64509,438.65013 L 301.64509,608.96263 L 406.92634,608.96263 L 406.92634,438.65013 z "
           id="path1957" />
      </g>
    </g>
    <g
       id="g1959"
       transform="translate(431.0712,-326.0996)">
      <g
         id="g1961">
        <path
           style="fill:aqua;fill-opacity:1;stroke:none;stroke-width:17.71653557;stroke-miterlimit:4;stroke-dasharray:none;stroke-opacity:1"
           d="M 137.14509,155.21875 L 137.14509,349.5 L 451.42634,349.5 L 451.42634,155.21875 L 137.14509,155.21875 z M 194.11384,190.4375 L 394.45759,190.4375 L 394.45759,314.28125 L 194.11384,314.28125 L 194.11384,190.4375 z M 209.14509,199.71875 L 209.14509,305 L 379.45759,305 L 379.45759,199.71875 L 209.14509,199.71875 z "
           id="path1963" />
        <path
           style="fill:aqua;fill-opacity:1;stroke:none;stroke-width:17.71653557;stroke-miterlimit:4;stroke-dasharray:none;stroke-opacity:1"
           d="M 451.42634,366.65014 L 257.14509,366.65014 L 257.14509,680.93138 L 451.42634,680.93138 L 451.42634,366.65014 z M 416.20759,423.61888 L 416.20759,623.96263 L 292.36384,623.96263 L 292.36384,423.61888 L 416.20759,423.61888 z M 406.92634,438.65013 L 301.64509,438.65013 L 301.64509,608.96263 L 406.92634,608.96263 L 406.92634,438.65013 z "
           id="path1965" />
      </g>
      <g
         transform="matrix(-1,0,0,-1,922.8571,719.0086)"
         id="g1967">
        <path
           style="fill:aqua;fill-opacity:1;stroke:none;stroke-width:17.71653557;stroke-miterlimit:4;stroke-dasharray:none;stroke-opacity:1"
           d="M 137.14509,155.21875 L 137.14509,349.5 L 451.42634,349.5 L 451.42634,155.21875 L 137.14509,155.21875 z M 194.11384,190.4375 L 394.45759,190.4375 L 394.45759,314.28125 L 194.11384,314.28125 L 194.11384,190.4375 z M 209.14509,199.71875 L 209.14509,305 L 379.45759,305 L 379.45759,199.71875 L 209.14509,199.71875 z "
           id="path1969" />
        <path
           style="fill:aqua;fill-opacity:1;stroke:none;stroke-width:17.71653557;stroke-miterlimit:4;stroke-dasharray:none;stroke-opacity:1"
           d="M 451.42634,366.65014 L 257.14509,366.65014 L 257.14509,680.93138 L 451.42634,680.93138 L 451.42634,366.65014 z M 416.20759,423.61888 L 416.20759,623.96263 L 292.36384,623.96263 L 292.36384,423.61888 L 416.20759,423.61888 z M 406.92634,438.65013 L 301.64509,438.65013 L 301.64509,608.96263 L 406.92634,608.96263 L 406.92634,438.65013 z "
           id="path1971" />
      </g>
    </g>
    <g
       id="g1973"
       transform="matrix(-1,0,0,1,594.7335,-544.0885)">
      <g
         id="g1975">
        <path
           style="fill:aqua;fill-opacity:1;stroke:none;stroke-width:17.71653557;stroke-miterlimit:4;stroke-dasharray:none;stroke-opacity:1"
           d="M 137.14509,155.21875 L 137.14509,349.5 L 451.42634,349.5 L 451.42634,155.21875 L 137.14509,155.21875 z M 194.11384,190.4375 L 394.45759,190.4375 L 394.45759,314.28125 L 194.11384,314.28125 L 194.11384,190.4375 z M 209.14509,199.71875 L 209.14509,305 L 379.45759,305 L 379.45759,199.71875 L 209.14509,199.71875 z "
           id="path1977" />
        <path
           style="fill:aqua;fill-opacity:1;stroke:none;stroke-width:17.71653557;stroke-miterlimit:4;stroke-dasharray:none;stroke-opacity:1"
           d="M 451.42634,366.65014 L 257.14509,366.65014 L 257.14509,680.93138 L 451.42634,680.93138 L 451.42634,366.65014 z M 416.20759,423.61888 L 416.20759,623.96263 L 292.36384,623.96263 L 292.36384,423.61888 L 416.20759,423.61888 z M 406.92634,438.65013 L 301.64509,438.65013 L 301.64509,608.96263 L 406.92634,608.96263 L 406.92634,438.65013 z "
           id="path1979" />
      </g>
      <g
         transform="matrix(-1,0,0,-1,922.8571,719.0086)"
         id="g1981">
        <path
           style="fill:aqua;fill-opacity:1;stroke:none;stroke-width:17.71653557;stroke-miterlimit:4;stroke-dasharray:none;stroke-opacity:1"
           d="M 137.14509,155.21875 L 137.14509,349.5 L 451.42634,349.5 L 451.42634,155.21875 L 137.14509,155.21875 z M 194.11384,190.4375 L 394.45759,190.4375 L 394.45759,314.28125 L 194.11384,314.28125 L 194.11384,190.4375 z M 209.14509,199.71875 L 209.14509,305 L 379.45759,305 L 379.45759,199.71875 L 209.14509,199.71875 z "
           id="path1983" />
        <path
           style="fill:aqua;fill-opacity:1;stroke:none;stroke-width:17.71653557;stroke-miterlimit:4;stroke-dasharray:none;stroke-opacity:1"
           d="M 451.42634,366.65014 L 257.14509,366.65014 L 257.14509,680.93138 L 451.42634,680.93138 L 451.42634,366.65014 z M 416.20759,423.61888 L 416.20759,623.96263 L 292.36384,623.96263 L 292.36384,423.61888 L 416.20759,423.61888 z M 406.92634,438.65013 L 301.64509,438.65013 L 301.64509,608.96263 L 406.92634,608.96263 L 406.92634,438.65013 z "
           id="path1985" />
      </g>
    </g>
    <g
       id="g1991"
       transform="translate(873.5987,-667.3586)">
      <path
         id="path1993"
         d="M 137.14509,155.21875 L 137.14509,349.5 L 451.42634,349.5 L 451.42634,155.21875 L 137.14509,155.21875 z M 194.11384,190.4375 L 394.45759,190.4375 L 394.45759,314.28125 L 194.11384,314.28125 L 194.11384,190.4375 z M 209.14509,199.71875 L 209.14509,305 L 379.45759,305 L 379.45759,199.71875 L 209.14509,199.71875 z "
         style="fill:aqua;fill-opacity:1;stroke:none;stroke-width:17.71653557;stroke-miterlimit:4;stroke-dasharray:none;stroke-opacity:1" />
      <path
         id="path1995"
         d="M 451.42634,366.65014 L 257.14509,366.65014 L 257.14509,680.93138 L 451.42634,680.93138 L 451.42634,366.65014 z M 416.20759,423.61888 L 416.20759,623.96263 L 292.36384,623.96263 L 292.36384,423.61888 L 416.20759,423.61888 z M 406.92634,438.65013 L 301.64509,438.65013 L 301.64509,608.96263 L 406.92634,608.96263 L 406.92634,438.65013 z "
         style="fill:aqua;fill-opacity:1;stroke:none;stroke-width:17.71653557;stroke-miterlimit:4;stroke-dasharray:none;stroke-opacity:1" />
    </g>
    <path
       style="fill:aqua;fill-opacity:1;stroke:none;stroke-width:17.71653557;stroke-miterlimit:4;stroke-dasharray:none;stroke-opacity:1"
       d="M 345.27425,895.60218 L 345.27425,701.32088 L 30.99305,701.32088 L 30.99305,895.60218 L 345.27425,895.60218 z M 288.30555,860.38338 L 87.96175,860.38338 L 87.96175,736.53968 L 288.30555,736.53968 L 288.30555,860.38338 z M 273.27425,851.10218 L 273.27425,745.82088 L 102.96175,745.82088 L 102.96175,851.10218 L 273.27425,851.10218 z "
       id="path1999" />
    <path
       style="fill:aqua;fill-opacity:1;stroke:none;stroke-width:17.71653557;stroke-miterlimit:4;stroke-dasharray:none;stroke-opacity:1"
       d="M 1353.4257,1003.2339 L 1547.7069,1003.2339 L 1547.7069,688.95262 L 1353.4257,688.95262 L 1353.4257,1003.2339 z M 1388.6444,946.26512 L 1388.6444,745.92137 L 1512.4882,745.92137 L 1512.4882,946.26512 L 1388.6444,946.26512 z M 1397.9257,931.23387 L 1503.2069,931.23387 L 1503.2069,760.92137 L 1397.9257,760.92137 L 1397.9257,931.23387 z "
       id="path2001" />
    <path
       style="fill:aqua;fill-opacity:1;stroke:none;stroke-width:17.71653557;stroke-miterlimit:4;stroke-dasharray:none;stroke-opacity:1"
       d="M 470.40145,-194.88565 L 664.6827,-194.88565 L 664.6827,-509.16688 L 470.40145,-509.16688 L 470.40145,-194.88565 z M 505.6202,-251.85435 L 505.6202,-452.19813 L 629.464,-452.19813 L 629.464,-251.85435 L 505.6202,-251.85435 z M 514.90145,-266.88565 L 620.1827,-266.88565 L 620.1827,-437.19813 L 514.90145,-437.19813 L 514.90145,-266.88565 z "
       id="path2007" />
    <path
       style="fill:aqua;fill-opacity:1;stroke:none;stroke-width:17.71653557;stroke-miterlimit:4;stroke-dasharray:none;stroke-opacity:1"
       d="M -211.51566,1135.0755 L -405.79691,1135.0755 L -405.79691,1449.3568 L -211.51566,1449.3568 L -211.51566,1135.0755 z M -246.73441,1192.0443 L -246.73441,1392.388 L -370.57816,1392.388 L -370.57816,1192.0443 L -246.73441,1192.0443 z M -256.01566,1207.0755 L -361.29691,1207.0755 L -361.29691,1377.388 L -256.01566,1377.388 L -256.01566,1207.0755 z "
       id="path2009" />
    <g
       id="g2011"
       transform="matrix(-1,0,0,-1,259.9151,1487.434)">
      <path
         id="path2013"
         d="M 137.14509,155.21875 L 137.14509,349.5 L 451.42634,349.5 L 451.42634,155.21875 L 137.14509,155.21875 z M 194.11384,190.4375 L 394.45759,190.4375 L 394.45759,314.28125 L 194.11384,314.28125 L 194.11384,190.4375 z M 209.14509,199.71875 L 209.14509,305 L 379.45759,305 L 379.45759,199.71875 L 209.14509,199.71875 z "
         style="fill:aqua;fill-opacity:1;stroke:none;stroke-width:17.71653557;stroke-miterlimit:4;stroke-dasharray:none;stroke-opacity:1" />
      <path
         id="path2015"
         d="M 451.42634,366.65014 L 257.14509,366.65014 L 257.14509,680.93138 L 451.42634,680.93138 L 451.42634,366.65014 z M 416.20759,423.61888 L 416.20759,623.96263 L 292.36384,623.96263 L 292.36384,423.61888 L 416.20759,423.61888 z M 406.92634,438.65013 L 301.64509,438.65013 L 301.64509,608.96263 L 406.92634,608.96263 L 406.92634,438.65013 z "
         style="fill:aqua;fill-opacity:1;stroke:none;stroke-width:17.71653557;stroke-miterlimit:4;stroke-dasharray:none;stroke-opacity:1" />
    </g>
    <path
       style="fill:aqua;fill-opacity:1;stroke:none;stroke-width:17.71653557;stroke-miterlimit:4;stroke-dasharray:none;stroke-opacity:1"
       d="M 805.03259,1016.0045 L 805.03259,1210.2858 L 1119.3138,1210.2858 L 1119.3138,1016.0045 L 805.03259,1016.0045 z M 862.00134,1051.2233 L 1062.3451,1051.2233 L 1062.3451,1175.0671 L 862.00134,1175.0671 L 862.00134,1051.2233 z M 877.03259,1060.5046 L 877.03259,1165.7858 L 1047.3451,1165.7858 L 1047.3451,1060.5046 L 877.03259,1060.5046 z "
       id="path2021" />
    <path
       style="fill:aqua;fill-opacity:1;stroke:none;stroke-width:17.71653557;stroke-miterlimit:4;stroke-dasharray:none;stroke-opacity:1"
       d="M 797.86137,1431.3388 L 797.86137,1237.0575 L 1112.1426,1237.0575 L 1112.1426,1431.3388 L 797.86137,1431.3388 z M 854.83017,1396.1201 L 1055.1738,1396.1201 L 1055.1738,1272.2763 L 854.83017,1272.2763 L 854.83017,1396.1201 z M 869.86137,1386.8388 L 869.86137,1281.5575 L 1040.1738,1281.5575 L 1040.1738,1386.8388 L 869.86137,1386.8388 z "
       id="path2023" />
    <g
       id="g2025"
       transform="matrix(-1,0,0,-1,1590.745,1579.794)">
      <path
         id="path2027"
         d="M 137.14509,155.21875 L 137.14509,349.5 L 451.42634,349.5 L 451.42634,155.21875 L 137.14509,155.21875 z M 194.11384,190.4375 L 394.45759,190.4375 L 394.45759,314.28125 L 194.11384,314.28125 L 194.11384,190.4375 z M 209.14509,199.71875 L 209.14509,305 L 379.45759,305 L 379.45759,199.71875 L 209.14509,199.71875 z "
         style="fill:aqua;fill-opacity:1;stroke:none;stroke-width:17.71653557;stroke-miterlimit:4;stroke-dasharray:none;stroke-opacity:1" />
      <path
         id="path2029"
         d="M 451.42634,366.65014 L 257.14509,366.65014 L 257.14509,680.93138 L 451.42634,680.93138 L 451.42634,366.65014 z M 416.20759,423.61888 L 416.20759,623.96263 L 292.36384,623.96263 L 292.36384,423.61888 L 416.20759,423.61888 z M 406.92634,438.65013 L 301.64509,438.65013 L 301.64509,608.96263 L 406.92634,608.96263 L 406.92634,438.65013 z "
         style="fill:aqua;fill-opacity:1;stroke:none;stroke-width:17.71653557;stroke-miterlimit:4;stroke-dasharray:none;stroke-opacity:1" />
    </g>
    <path
       style="fill:aqua;fill-opacity:1;stroke:none;stroke-width:17.71653557;stroke-miterlimit:4;stroke-dasharray:none;stroke-opacity:1"
       d="M 993.36828,-507.94155 L 993.36828,-313.6603 L 679.08708,-313.6603 L 679.08708,-507.94155 L 993.36828,-507.94155 z M 936.39958,-472.7228 L 736.05578,-472.7228 L 736.05578,-348.87905 L 936.39958,-348.87905 L 936.39958,-472.7228 z M 921.36828,-463.44155 L 921.36828,-358.1603 L 751.05578,-358.1603 L 751.05578,-463.44155 L 921.36828,-463.44155 z "
       id="path2035" />
    <path
       style="fill:aqua;fill-opacity:1;stroke:none;stroke-width:17.71653557;stroke-miterlimit:4;stroke-dasharray:none;stroke-opacity:1"
       d="M 1338.2043,-510.61831 L 1532.4855,-510.61831 L 1532.4855,-196.33707 L 1338.2043,-196.33707 L 1338.2043,-510.61831 z M 1373.423,-453.64957 L 1373.423,-253.30582 L 1497.2668,-253.30582 L 1497.2668,-453.64957 L 1373.423,-453.64957 z M 1382.7043,-438.61832 L 1487.9855,-438.61832 L 1487.9855,-268.30582 L 1382.7043,-268.30582 L 1382.7043,-438.61832 z "
       id="path2037" />
    <path
       style="fill:aqua;fill-opacity:1;stroke:none;stroke-width:17.71653557;stroke-miterlimit:4;stroke-dasharray:none;stroke-opacity:1"
       d="M -91.33759,-208.52365 L -91.33759,-402.8049 L -405.61884,-402.8049 L -405.61884,-208.52365 L -91.33759,-208.52365 z M -148.30634,-243.7424 L -348.65009,-243.7424 L -348.65009,-367.58615 L -148.30634,-367.58615 L -148.30634,-243.7424 z M -163.33759,-253.02365 L -163.33759,-358.3049 L -333.65009,-358.3049 L -333.65009,-253.02365 L -163.33759,-253.02365 z "
       id="path2041" />
    <path
       style="fill:aqua;fill-opacity:1;stroke:none;stroke-width:17.71653557;stroke-miterlimit:4;stroke-dasharray:none;stroke-opacity:1"
       d="M -409.81704,125.81082 L -215.53579,125.81082 L -215.53579,-188.47042 L -409.81704,-188.47042 L -409.81704,125.81082 z M -374.59829,68.842076 L -374.59829,-131.50167 L -250.75454,-131.50167 L -250.75454,68.842076 L -374.59829,68.842076 z M -365.31704,53.810826 L -260.03579,53.810826 L -260.03579,-116.50167 L -365.31704,-116.50167 L -365.31704,53.810826 z "
       id="path2043" />
    <path
       style="fill:aqua;fill-opacity:1;stroke:none;stroke-width:17.71653557;stroke-miterlimit:4;stroke-dasharray:none;stroke-opacity:1"
       d="M 1347.0398,126.36746 L 1541.321,126.36746 L 1541.321,-187.91374 L 1347.0398,-187.91374 L 1347.0398,126.36746 z M 1382.2585,69.398759 L 1382.2585,-130.94499 L 1506.1023,-130.94499 L 1506.1023,69.398759 L 1382.2585,69.398759 z M 1391.5398,54.367459 L 1496.821,54.367459 L 1496.821,-115.94499 L 1391.5398,-115.94499 L 1391.5398,54.367459 z "
       id="path2079" />
    <path
       style="fill:aqua;fill-opacity:1;stroke:none;stroke-width:17.71653557;stroke-miterlimit:4;stroke-dasharray:none;stroke-opacity:1"
       d="M -412.00553,1117.1424 L -217.72433,1117.1424 L -217.72433,802.86119 L -412.00553,802.86119 L -412.00553,1117.1424 z M -376.78683,1060.1737 L -376.78683,859.82994 L -252.94303,859.82994 L -252.94303,1060.1737 L -376.78683,1060.1737 z M -367.50553,1045.1424 L -262.22433,1045.1424 L -262.22433,874.82994 L -367.50553,874.82994 L -367.50553,1045.1424 z "
       id="path2081" />
  </g>
</svg>
