<?xml version="1.0" encoding="UTF-8" standalone="no"?>
<!-- Created with Inkscape (http://www.inkscape.org/) -->
<svg
   xmlns:dc="http://purl.org/dc/elements/1.1/"
   xmlns:cc="http://web.resource.org/cc/"
   xmlns:rdf="http://www.w3.org/1999/02/22-rdf-syntax-ns#"
   xmlns:svg="http://www.w3.org/2000/svg"
   xmlns="http://www.w3.org/2000/svg"
   xmlns:sodipodi="http://sodipodi.sourceforge.net/DTD/sodipodi-0.dtd"
   xmlns:inkscape="http://www.inkscape.org/namespaces/inkscape"
   width="1344.2202"
   height="909.9411"
   id="svg2"
   sodipodi:version="0.32"
   inkscape:version="0.44.1"
   sodipodi:docbase="/home/lok/pygameLesson/wormstory/data"
   sodipodi:docname="mgamelogo.svg"
   version="1.0"
   inkscape:export-filename="/home/lok/smile_cow.png"
   inkscape:export-xdpi="14.125987"
   inkscape:export-ydpi="14.125987">
  <defs
     id="defs4" />
  <sodipodi:namedview
     id="base"
     pagecolor="#ffffff"
     bordercolor="#666666"
     borderopacity="1.0"
     gridtolerance="10000"
     guidetolerance="10"
     objecttolerance="10"
     inkscape:pageopacity="0.0"
     inkscape:pageshadow="2"
     inkscape:zoom="0.5092373"
     inkscape:cx="735.7021"
     inkscape:cy="449.79352"
     inkscape:document-units="px"
     inkscape:current-layer="layer1"
     inkscape:window-width="1014"
     inkscape:window-height="689"
     inkscape:window-x="0"
     inkscape:window-y="25" />
  <metadata
     id="metadata7">
    <rdf:RDF>
      <cc:Work
         rdf:about="">
        <dc:format>image/svg+xml</dc:format>
        <dc:type
           rdf:resource="http://purl.org/dc/dcmitype/StillImage" />
      </cc:Work>
    </rdf:RDF>
  </metadata>
  <g
     inkscape:label="Layer 1"
     inkscape:groupmode="layer"
     id="layer1"
     transform="translate(318.5329,-5.268977)">
    <path
       style="fill:yellow;fill-rule:evenodd;stroke:black;stroke-width:35.43307114;stroke-linecap:butt;stroke-linejoin:miter;stroke-miterlimit:4;stroke-dasharray:none;stroke-opacity:1"
       d="M -153.65952,167.61891 C -417.77275,786.55795 1447.9042,905.17348 1081.5535,412.38972 C 716.14371,-79.128432 110.45372,-451.32013 -153.65952,167.61891 z "
       transform="translate(-121.4389,179.5175)"
       id="path2798"
       sodipodi:nodetypes="czz" />
    <path
       style="fill:#0d0f06;fill-opacity:1;fill-rule:evenodd;stroke:none;stroke-width:0.80000001px;stroke-linecap:butt;stroke-linejoin:miter;stroke-opacity:1"
       d="M 662.89284,484.95307 C 715.14285,481.95308 720.4149,496.67735 697.89284,522.95307 C 812.39305,511.12406 869.75614,554.51225 708.89285,562.95308 C 780.83642,562.04511 803.971,662.3651 719.89285,624.95308 C 795.93449,678.67039 754.2292,713.34538 707.89285,673.95307 C 687.33851,760.11389 503.52222,735.06702 476.89284,643.95308 C 470.97515,519.99147 540.11565,505.3902 662.89284,484.95307 z "
       id="path8401" />
    <path
       style="fill:yellow;fill-opacity:1;fill-rule:evenodd;stroke:none;stroke-width:0.63197201px;stroke-linecap:butt;stroke-linejoin:miter;stroke-opacity:1"
       d="M 636.59826,496.93934 C 676.59343,494.49357 680.62897,506.49762 663.38926,527.91909 C 751.03434,518.27541 794.94336,553.64792 671.80932,560.52937 C 726.87908,559.78915 744.58761,641.57571 680.22936,611.0753 C 738.43601,654.86873 706.51237,683.13774 671.04385,651.02289 C 655.31039,721.2661 514.60677,700.84645 494.22312,626.56519 C 489.69338,525.50464 542.6175,513.60084 636.59826,496.93934 z "
       id="path8403" />
    <path
       style="fill:#0d0f06;fill-opacity:1;fill-rule:evenodd;stroke:none;stroke-width:0.80000001px;stroke-linecap:butt;stroke-linejoin:miter;stroke-opacity:1"
       d="M 29.85746,484.95307 C -22.39255,481.95308 -27.6646,496.67735 -5.14254,522.95307 C -119.64275,511.12406 -177.00584,554.51225 -16.14255,562.95308 C -88.08612,562.04511 -111.2207,662.3651 -27.14255,624.95308 C -103.18419,678.67039 -61.4789,713.34538 -15.14255,673.95307 C 5.41179,760.11389 189.22808,735.06702 215.85746,643.95308 C 221.77515,519.99147 152.63465,505.3902 29.85746,484.95307 z "
       id="path1919" />
    <path
       style="fill:yellow;fill-opacity:1;fill-rule:evenodd;stroke:none;stroke-width:0.63197201px;stroke-linecap:butt;stroke-linejoin:miter;stroke-opacity:1"
       d="M 56.15204,496.93934 C 16.15687,494.49357 12.12133,506.49762 29.36104,527.91909 C -58.28404,518.27541 -102.19306,553.64792 20.94098,560.52937 C -34.12878,559.78915 -51.83731,641.57571 12.52094,611.0753 C -45.68571,654.86873 -13.76207,683.13774 21.70645,651.02289 C 37.43991,721.2661 178.14353,700.84645 198.52718,626.56519 C 203.05692,525.50464 150.1328,513.60084 56.15204,496.93934 z "
       id="path1922" />
    <path
       style="fill:none;fill-rule:evenodd;stroke:black;stroke-width:5;stroke-linecap:butt;stroke-linejoin:miter;stroke-miterlimit:4;stroke-dasharray:none;stroke-opacity:1"
       d="M 423.62497,295.3705 C 417.20036,248.70926 433.31322,209.77516 455.32099,193.02487 C 467.54151,183.72372 481.57966,181.2627 494.58598,188.11701 C 531.01517,207.31513 523.65132,293.39168 505.91108,320.20506 C 488.17082,347.01843 433.61708,367.94193 423.62497,295.3705 z "
       id="path7495"
       sodipodi:nodetypes="cszzz"
       inkscape:transform-center-y="-12.192491"
       inkscape:transform-center-x="23.08769" />
    <path
       style="fill:none;fill-rule:evenodd;stroke:black;stroke-width:5;stroke-linecap:butt;stroke-linejoin:miter;stroke-miterlimit:4;stroke-dasharray:none;stroke-opacity:1"
       d="M 258.98714,293.18687 C 265.41175,246.52563 249.29889,207.59153 227.29112,190.84124 C 215.0706,181.54009 201.03245,179.07907 188.02613,185.93338 C 151.59694,205.1315 158.96079,291.20805 176.70103,318.02143 C 194.44129,344.8348 248.99503,365.7583 258.98714,293.18687 z "
       id="path1872"
       sodipodi:nodetypes="cszzz"
       inkscape:transform-center-y="-12.192491"
       inkscape:transform-center-x="-23.087693" />
    <path
       style="fill:#0d0f06;fill-opacity:1;fill-rule:evenodd;stroke:black;stroke-width:4;stroke-linecap:butt;stroke-linejoin:miter;stroke-miterlimit:4;stroke-dasharray:none;stroke-opacity:1"
       d="M 571.42857,483.79076 C 676.37947,628.45599 499.84725,759.93554 362.85714,763.79075 C 206.69513,755.33401 51.600797,650.06528 110.85714,479.21933 C 55.479147,142.82873 634.93172,130.94715 571.42857,483.79076 z "
       id="path1876"
       sodipodi:nodetypes="cccc" />
    <path
       style="fill:yellow;fill-opacity:1;fill-rule:evenodd;stroke:black;stroke-width:3.58286738;stroke-linecap:butt;stroke-linejoin:miter;stroke-miterlimit:4;stroke-dasharray:none;stroke-opacity:1"
       d="M 551.67111,495.03888 C 645.90915,624.29931 487.39645,741.77814 364.3896,745.22283 C 224.16783,737.66661 84.90476,643.60752 138.1125,490.95425 C 113.24986,340.66938 314.89478,184.87285 347.62773,390.05638 C 376.36067,183.23992 580.18165,337.40351 551.67111,495.03888 z "
       id="path3943"
       sodipodi:nodetypes="ccccc" />
    <path
       style="fill:black;fill-opacity:1;fill-rule:evenodd;stroke:black;stroke-width:0.75834918px;stroke-linecap:butt;stroke-linejoin:miter;stroke-opacity:1"
       d="M 501.3665,652.49188 C 560.87088,630.55959 576.24431,588.46165 541.76666,577.47269 C 507.289,566.48372 447.3673,602.04718 437.26726,620.80198 C 427.16722,639.55678 441.86211,674.42416 501.3665,652.49188 z "
       id="path1886"
       sodipodi:nodetypes="czzz"
       inkscape:transform-center-y="22.912853"
       inkscape:transform-center-x="11.37014" />
    <path
       style="fill:black;fill-opacity:1;fill-rule:evenodd;stroke:black;stroke-width:0.75834918px;stroke-linecap:butt;stroke-linejoin:miter;stroke-opacity:1"
       d="M 267.77524,614.69785 C 234.96002,574.92767 171.97281,564.65274 155.53106,587.69612 C 139.0893,610.7395 192.29957,650.78859 220.36062,657.53902 C 248.42167,664.28945 300.59046,654.46802 267.77524,614.69785 z "
       id="path1888"
       sodipodi:nodetypes="czzz"
       inkscape:transform-center-y="-22.912853"
       inkscape:transform-center-x="-11.370144" />
    <path
       style="fill:none;fill-rule:evenodd;stroke:black;stroke-width:10;stroke-linecap:butt;stroke-linejoin:miter;stroke-miterlimit:4;stroke-dasharray:none;stroke-opacity:1"
       d="M 354.28571,586.6479 C 210.19126,582.17093 113.71814,471.96018 113.42857,556.93361 C 113.139,641.90705 165.89529,683.33105 214.82405,707.00031 C 304.47278,749.88444 302.69983,691.97745 365.71429,692.36218 C 428.72875,692.74691 434.00903,740.231 510.48879,700.372 C 549.44933,680.47051 575.47769,654.54229 589.42857,571.79075 C 603.40805,488.86958 499.95771,591.17389 354.28571,586.6479 z "
       id="path1894"
       sodipodi:nodetypes="czczczc" />
    <path
       style="fill:black;fill-opacity:1;fill-rule:evenodd;stroke:black;stroke-width:1px;stroke-linecap:butt;stroke-linejoin:miter;stroke-opacity:1"
       d="M 156.40619,299.47655 C 95.228529,277.8097 65.481158,341.59501 104.34702,402.3736 C 138.81707,466.53309 217.58386,321.14341 156.40619,299.47655 z "
       id="path1900"
       sodipodi:nodetypes="ccz" />
    <path
       style="fill:black;fill-opacity:1;fill-rule:evenodd;stroke:black;stroke-width:1px;stroke-linecap:butt;stroke-linejoin:miter;stroke-opacity:1"
       d="M 535.76235,294.44468 C 597.63059,274.83651 625.22753,339.58124 584.35022,399.02565 C 547.75317,461.99612 473.89413,314.05286 535.76235,294.44468 z "
       id="path1902"
       sodipodi:nodetypes="ccz" />
    <g
       id="g8395"
       transform="matrix(0.130455,-0.991454,0.991454,0.130455,-217.0865,704.6579)">
      <path
         inkscape:transform-center-x="11.37014"
         inkscape:transform-center-y="22.912853"
         sodipodi:nodetypes="czzz"
         id="path1880"
         d="M 297.00219,524.25251 C 350.45336,494.10454 364.2629,436.23699 333.29255,421.13164 C 302.3222,406.02629 248.49617,454.91158 239.42358,480.69179 C 230.35099,506.47202 243.55101,554.40048 297.00219,524.25251 z "
         style="fill:none;fill-rule:evenodd;stroke:black;stroke-width:10;stroke-linecap:butt;stroke-linejoin:miter;stroke-miterlimit:4;stroke-dasharray:none;stroke-opacity:1" />
      <path
         transform="translate(11.42857,-11.42857)"
         d="M 308.57142 460.93362 A 21.428572 20 0 1 1  265.71428,460.93362 A 21.428572 20 0 1 1  308.57142 460.93362 z"
         sodipodi:ry="20"
         sodipodi:rx="21.428572"
         sodipodi:cy="460.93362"
         sodipodi:cx="287.14285"
         id="path1906"
         style="fill:#030303;fill-opacity:1;stroke:#1f57a0;stroke-width:3;stroke-miterlimit:4;stroke-dasharray:none;stroke-opacity:0"
         sodipodi:type="arc" />
    </g>
    <g
       id="g8391"
       transform="matrix(0.171351,0.98521,-0.98521,0.171351,810.1594,-17.6887)">
      <path
         inkscape:transform-center-x="-11.370144"
         inkscape:transform-center-y="-22.912853"
         sodipodi:nodetypes="czzz"
         id="path1878"
         d="M 462.68585,468.86194 C 433.20882,414.19414 376.62912,400.07027 361.85994,431.74555 C 347.09076,463.42082 394.8881,518.47203 420.09458,527.75113 C 445.30106,537.03023 492.16287,523.52976 462.68585,468.86194 z "
         style="fill:none;fill-rule:evenodd;stroke:black;stroke-width:10;stroke-linecap:butt;stroke-linejoin:miter;stroke-miterlimit:4;stroke-dasharray:none;stroke-opacity:1" />
      <path
         transform="translate(18.85714,-13.71429)"
         d="M 411.42856 460.93362 A 20 25.714285 0 1 1  371.42856,460.93362 A 20 25.714285 0 1 1  411.42856 460.93362 z"
         sodipodi:ry="25.714285"
         sodipodi:rx="20"
         sodipodi:cy="460.93362"
         sodipodi:cx="391.42856"
         id="path1908"
         style="fill:black;fill-opacity:1;stroke:#1f57a0;stroke-width:3;stroke-miterlimit:4;stroke-dasharray:none;stroke-opacity:0"
         sodipodi:type="arc" />
    </g>
    <path
       style="fill:none;fill-rule:evenodd;stroke:black;stroke-width:5.38686085;stroke-linecap:butt;stroke-linejoin:miter;stroke-miterlimit:4;stroke-dasharray:none;stroke-opacity:1"
       d="M 405.73463,729.40554 C 424.26405,713.02173 392.36489,699.30736 357.76609,702.63315 C 323.1673,705.95895 318.07957,725.9652 330.07169,732.6583 C 342.06384,739.3514 387.20519,745.78934 405.73463,729.40554 z "
       id="path2806"
       sodipodi:nodetypes="czzz" />
    <path
       style="fill:black;fill-opacity:1;fill-rule:evenodd;stroke:black;stroke-width:0.96621591px;stroke-linecap:butt;stroke-linejoin:miter;stroke-opacity:1"
       d="M -25.388504,308.76037 L 38.343912,664.55988 L 93.325148,648.16566 L -25.388504,308.76037 z "
       id="path8407"
       sodipodi:nodetypes="cccc" />
    <path
       sodipodi:type="arc"
       style="fill:#060702;fill-opacity:1;stroke:none;stroke-width:10;stroke-miterlimit:4;stroke-dasharray:none;stroke-opacity:0"
       id="path8409"
       sodipodi:cx="-427"
       sodipodi:cy="79.273254"
       sodipodi:rx="109"
       sodipodi:ry="131"
       d="M -318 79.273254 A 109 131 0 1 1  -536,79.273254 A 109 131 0 1 1  -318 79.273254 z"
       transform="matrix(0.787753,0,0,0.753692,321.1299,306.6404)" />
    <path
       sodipodi:type="arc"
       style="fill:yellow;fill-opacity:1;stroke:none;stroke-width:10;stroke-miterlimit:4;stroke-dasharray:none;stroke-opacity:0"
       id="path9296"
       sodipodi:cx="-475"
       sodipodi:cy="61.273254"
       sodipodi:rx="25"
       sodipodi:ry="95"
       d="M -450 61.273254 A 25 95 0 1 1  -500,61.273254 A 25 95 0 1 1  -450 61.273254 z"
       transform="matrix(0.762396,-0.189688,0.198261,0.729431,287.4841,216.5174)" />
    <path
       sodipodi:type="arc"
       style="fill:yellow;fill-opacity:1;stroke:none;stroke-width:10;stroke-miterlimit:4;stroke-dasharray:none;stroke-opacity:0"
       id="path9300"
       sodipodi:cx="-475"
       sodipodi:cy="61.273254"
       sodipodi:rx="25"
       sodipodi:ry="95"
       d="M -450 61.273254 A 25 95 0 1 1  -500,61.273254 A 25 95 0 1 1  -450 61.273254 z"
       transform="matrix(0.76304,-0.187305,0.19577,0.730047,373.8075,192.74)" />
    <path
       style="fill:black;fill-opacity:1;fill-rule:evenodd;stroke:black;stroke-width:0.77053434px;stroke-linecap:butt;stroke-linejoin:miter;stroke-opacity:1"
       d="M -104.20147,304.30143 L -121.05366,356.66187 L -64.142903,341.05583 L -104.20147,304.30143 z "
       id="path10187"
       sodipodi:nodetypes="cccc" />
    <path
       style="fill:black;fill-opacity:1;fill-rule:evenodd;stroke:black;stroke-width:0.77053434px;stroke-linecap:butt;stroke-linejoin:miter;stroke-opacity:1"
       d="M 27.960374,266.70019 L 17.823482,320.62163 L 72.354888,298.56999 L 27.960374,266.70019 z "
       id="path11078"
       sodipodi:nodetypes="cccc" />
    <path
       style="fill:black;fill-opacity:1;fill-rule:evenodd;stroke:black;stroke-width:1.47913206px;stroke-linecap:butt;stroke-linejoin:miter;stroke-opacity:1"
       d="M -58.972045,206.76141 L -86.913636,298.57894 L 16.590759,269.07035 L -58.972045,206.76141 z "
       id="path11080"
       sodipodi:nodetypes="cccc"
       inkscape:transform-center-x="12" />
    <text
       xml:space="preserve"
       style="font-size:72px;font-style:normal;font-variant:normal;font-weight:bold;font-stretch:normal;text-align:start;line-height:100%;writing-mode:lr-tb;text-anchor:start;fill:black;fill-opacity:1;stroke:none;stroke-width:1px;stroke-linecap:butt;stroke-linejoin:miter;stroke-opacity:1;font-family:Bitstream Vera Sans"
       x="379.30997"
       y="830.59357"
       id="text3702"
       sodipodi:linespacing="100%"><tspan
         sodipodi:role="line"
         id="tspan3704"
         x="379.30997"
         y="830.59357">[M-Game]</tspan></text>
  </g>
</svg>
