<?xml version="1.0" encoding="UTF-8" standalone="no"?>
<!-- Created with Inkscape (http://www.inkscape.org/) -->
<svg
   xmlns:dc="http://purl.org/dc/elements/1.1/"
   xmlns:cc="http://web.resource.org/cc/"
   xmlns:rdf="http://www.w3.org/1999/02/22-rdf-syntax-ns#"
   xmlns:svg="http://www.w3.org/2000/svg"
   xmlns="http://www.w3.org/2000/svg"
   xmlns:sodipodi="http://sodipodi.sourceforge.net/DTD/sodipodi-0.dtd"
   xmlns:inkscape="http://www.inkscape.org/namespaces/inkscape"
   width="444.39322"
   height="442.30469"
   id="svg2"
   sodipodi:version="0.32"
   inkscape:version="0.44.1"
   sodipodi:docbase="/home/lok"
   sodipodi:docname="spider.svg"
   version="1.0"
   inkscape:export-filename="/home/lok/spider_s.png"
   inkscape:export-xdpi="18.313168"
   inkscape:export-ydpi="18.313168">
  <defs
     id="defs4" />
  <sodipodi:namedview
     id="base"
     pagecolor="#ffffff"
     bordercolor="#666666"
     borderopacity="1.0"
     gridtolerance="10000"
     guidetolerance="10"
     objecttolerance="10"
     inkscape:pageopacity="0.0"
     inkscape:pageshadow="2"
     inkscape:zoom="0.46371868"
     inkscape:cx="372.04724"
     inkscape:cy="353.6627"
     inkscape:document-units="px"
     inkscape:current-layer="layer1"
     showguides="true"
     inkscape:guide-bbox="true"
     inkscape:window-width="1024"
     inkscape:window-height="693"
     inkscape:window-x="0"
     inkscape:window-y="25" />
  <metadata
     id="metadata7">
    <rdf:RDF>
      <cc:Work
         rdf:about="">
        <dc:format>image/svg+xml</dc:format>
        <dc:type
           rdf:resource="http://purl.org/dc/dcmitype/StillImage" />
      </cc:Work>
    </rdf:RDF>
  </metadata>
  <g
     inkscape:label="Layer 1"
     inkscape:groupmode="layer"
     id="layer1"
     transform="translate(-81.25551,-160.6568)">
    <g
       id="g3673"
       transform="matrix(0.934331,0,0,1,26.78726,4)">
      <path
         sodipodi:nodetypes="ccccccccc"
         id="path1881"
         d="M 103.22702,270.56754 C 191.03905,361.64616 116.22983,274.55985 162.00385,251.65126 C 137.91337,235.87532 116.10259,241.67555 103.22702,270.56754 z M 158.22231,296.73234 C 133.3318,320.56249 110.95131,322.17474 190.15332,353.72821 C 217.69701,303.28312 198.34743,315.1229 158.22231,296.73234 z M 189.49147,343.75652 L 219.84936,348.74234 L 189.49147,343.75652 z "
         style="fill:red;fill-opacity:1;stroke:green;stroke-width:17.71653557;stroke-miterlimit:4;stroke-dasharray:none;stroke-opacity:1" />
      <path
         sodipodi:nodetypes="ccccccccc"
         id="path3663"
         d="M 179.52509,571.49024 C 267.33712,480.41163 212.36862,551.62536 258.14264,574.53395 C 234.05216,590.30989 192.40066,600.38223 179.52509,571.49024 z M 235.31401,538.18278 C 210.4235,514.35263 193.59841,517.50216 251.37245,466.90161 C 278.91614,517.34669 275.43913,519.79222 235.31401,538.18278 z M 250.7106,476.8733 L 279.6139,457.34149 L 250.7106,476.8733 z "
         style="fill:red;fill-opacity:1;stroke:green;stroke-width:17.71653557;stroke-miterlimit:4;stroke-dasharray:none;stroke-opacity:1" />
      <path
         sodipodi:nodetypes="ccccccccc"
         id="path3665"
         d="M 67.460806,391.02738 C 161.01563,401.10115 73.802931,350.15769 85.393866,325.0672 C 63.767162,310.52315 82.078748,363.00658 67.460806,391.02738 z M 111.33524,369.94929 C 123.18228,431.15477 135.60184,421.56675 174.07507,404.39114 C 201.61876,353.94605 151.46037,388.33985 111.33524,369.94929 z M 171.23132,399.51055 L 218.3171,387.76848 L 171.23132,399.51055 z "
         style="fill:red;fill-opacity:1;stroke:green;stroke-width:17.71653557;stroke-miterlimit:4;stroke-dasharray:none;stroke-opacity:1" />
      <path
         sodipodi:nodetypes="ccccccccc"
         id="path3669"
         d="M 126.05854,521.664 C 169.52043,454.48618 155.32753,489.7274 89.581356,466.58689 C 73.805416,490.67737 97.166547,508.78843 126.05854,521.664 z M 137.35492,474.72604 C 192.43659,516.55981 221.57614,476.87521 216.99507,442.99247 C 169.06884,440.18925 155.75966,425.39309 137.35492,474.72604 z M 219.12685,442.12489 C 247.25208,422.46253 225.80665,439.44179 247.59055,432.2317 C 220.71555,440.41152 277.42999,417.39263 219.12685,442.12489 z "
         style="fill:red;fill-opacity:1;stroke:green;stroke-width:17.71653557;stroke-miterlimit:4;stroke-dasharray:none;stroke-opacity:1" />
    </g>
    <g
       id="g3689"
       transform="matrix(0.93509,0,0,1,16.39194,4)">
      <path
         sodipodi:nodetypes="ccccccccc"
         id="path3659"
         d="M 484.32718,225.95421 C 396.51515,317.03283 471.32437,229.94652 425.55035,207.03793 C 449.64083,191.26199 471.45161,197.06222 484.32718,225.95421 z M 429.33189,252.11901 C 454.2224,275.94916 476.60289,277.56141 397.40088,309.11488 C 369.85719,258.66979 389.20677,270.50957 429.33189,252.11901 z M 398.06273,299.14319 L 367.70484,304.12901 L 398.06273,299.14319 z "
         style="fill:red;fill-opacity:1;stroke:green;stroke-width:17.71653557;stroke-miterlimit:4;stroke-dasharray:none;stroke-opacity:1" />
      <path
         sodipodi:nodetypes="ccccccccc"
         id="path3661"
         d="M 472.59076,566.0763 C 384.77873,474.99769 443.71538,557.32222 397.94136,580.23081 C 422.03184,596.00675 459.71519,594.96829 472.59076,566.0763 z M 407.2783,535.94337 C 432.16881,512.11322 465.6601,502.56468 386.45809,471.01121 C 358.9144,521.4563 367.15318,517.55281 407.2783,535.94337 z M 387.11994,480.9829 L 353.82743,455.7852 L 387.11994,480.9829 z "
         style="fill:red;fill-opacity:1;stroke:green;stroke-width:17.71653557;stroke-miterlimit:4;stroke-dasharray:none;stroke-opacity:1" />
      <path
         sodipodi:nodetypes="ccccccccc"
         id="path3667"
         d="M 525.82413,340.73495 C 435.12074,362.07525 491.07788,324.2734 487.87058,292.476 C 511.96106,276.70006 512.94856,311.84296 525.82413,340.73495 z M 478.11576,334.51213 C 464.53115,390.73571 461.83017,388.11946 423.35694,370.94385 C 395.81325,320.49876 437.99063,352.90269 478.11576,334.51213 z M 420.54422,359.75896 L 401.13521,358.81532 L 420.54422,359.75896 z "
         style="fill:red;fill-opacity:1;stroke:green;stroke-width:17.71653557;stroke-miterlimit:4;stroke-dasharray:none;stroke-opacity:1" />
      <path
         sodipodi:nodetypes="ccccccccc"
         id="path3671"
         d="M 509.67325,500.42288 C 437.03863,410.93413 493.71096,468.39922 526.07444,440.80769 C 541.85038,464.89817 538.56524,487.54731 509.67325,500.42288 z M 475.74105,458.22518 C 447.5471,462.7513 460.84266,492.63768 412.52191,422.65767 C 472.41246,401.71105 472.6115,415.50682 475.74105,458.22518 z M 417.85753,422.14797 L 388.50532,408.346 C 415.38032,416.52582 344.46385,390.7088 417.85753,422.14797 z "
         style="fill:red;fill-opacity:1;stroke:green;stroke-width:17.71653557;stroke-miterlimit:4;stroke-dasharray:none;stroke-opacity:1" />
    </g>
    <path
       style="fill:red;fill-opacity:1;stroke:green;stroke-width:26.5748024;stroke-miterlimit:4;stroke-dasharray:none;stroke-opacity:1"
       d="M 226.95979,173.94416 C 214.15901,173.94416 203.75668,184.34653 203.75666,197.14729 C 203.75666,209.94803 214.15901,220.30354 226.95979,220.30354 C 232.53667,220.30354 237.62996,218.33767 241.63166,215.05354 C 241.14169,217.75403 240.88166,220.55618 240.88166,223.39729 C 240.88166,248.99884 261.63943,269.75666 287.24104,269.75666 C 312.84265,269.75666 333.64727,248.99884 333.64729,223.39729 L 333.64729,223.30354 C 333.61768,197.72087 312.82379,176.99104 287.24104,176.99104 C 272.00273,176.99104 258.5255,184.3831 250.06916,195.74104 C 249.3539,183.57977 239.29663,173.94415 226.95979,173.94416 z "
       id="path1872" />
    <path
       sodipodi:type="arc"
       style="fill:red;fill-opacity:1;stroke:green;stroke-width:17.71653557;stroke-miterlimit:4;stroke-dasharray:none;stroke-opacity:1"
       id="path1877"
       sodipodi:cx="351"
       sodipodi:cy="457.36218"
       sodipodi:rx="141"
       sodipodi:ry="145"
       d="M 492,457.36218 A 141,145 0 1 1 491.99991,457.19436"
       sodipodi:start="0"
       sodipodi:end="6.2820279"
       sodipodi:open="true"
       transform="matrix(0.667846,0,0,0.649422,74.7279,73.19919)" />
  </g>
</svg>
